<svg class="svg-icon" style="width: 1em;height: 1em;vertical-align: middle;fill: currentColor;overflow: hidden;" viewBox="0 0 1024 1024" version="1.1" xmlns="http://www.w3.org/2000/svg"><path d="M768 469.333333H358.826667l55.466666-55.04a42.666667 42.666667 0 0 0-60.586666-60.586666l-128 128a42.666667 42.666667 0 0 0-8.96 14.08 42.666667 42.666667 0 0 0 0 32.426666 42.666667 42.666667 0 0 0 8.96 14.08l128 128a42.666667 42.666667 0 0 0 60.586666 0 42.666667 42.666667 0 0 0 0-60.586666L358.826667 554.666667H768a42.666667 42.666667 0 0 0 0-85.333334z"  /><path d="M512 42.666667a469.333333 469.333333 0 1 0 469.333333 469.333333A469.333333 469.333333 0 0 0 512 42.666667z m0 853.333333a384 384 0 1 1 384-384 384 384 0 0 1-384 384z"  /></svg>