<svg class="svg-icon" style="width: 1em; height: 1em;vertical-align: middle;fill: currentColor;overflow: hidden;" viewBox="0 0 1024 1024" version="1.1" xmlns="http://www.w3.org/2000/svg"><path d="M896 804.8v25.6a89.6 89.6 0 0 1-89.6 89.6H217.6a89.6 89.6 0 0 1-89.6-89.6v-25.6a51.2 51.2 0 0 1 51.2-51.2h665.6a51.2 51.2 0 0 1 51.2 51.2z" fill="#453F3C" /><path d="M179.2 779.2h665.6a25.6 25.6 0 0 1 25.6 25.6v25.6a64 64 0 0 1-64 64H217.6a64 64 0 0 1-64-64v-25.6a25.6 25.6 0 0 1 25.6-25.6z" fill="#EACE8F" /><path d="M147.2 766.4h729.6v25.6H147.2z" fill="#FFFFFF" opacity=".24" /><path d="M147.2 868.8h729.6v38.4H147.2z" opacity=".14" /><path d="M448 792h12.8v76.8h-12.8zM473.6 792h6.4v76.8h-6.4z" fill="#FFFFFF" opacity=".24" /><path d="M921.6 561.6m0 64l0 38.4q0 64-64 64l-691.2 0q-64 0-64-64l0-38.4q0-64 64-64l691.2 0q64 0 64 64Z" fill="#453F3C" /><path d="M128 587.2m38.4 0l691.2 0q38.4 0 38.4 38.4l0 38.4q0 38.4-38.4 38.4l-691.2 0q-38.4 0-38.4-38.4l0-38.4q0-38.4 38.4-38.4Z" fill="#7A6862" /><path d="M857.6 587.2H166.4a38.4 38.4 0 0 0-38.4 38.4v38.4a38.4 38.4 0 0 0 38.4 38.4h691.2a38.4 38.4 0 0 0 38.4-38.4v-38.4a38.4 38.4 0 0 0-38.4-38.4z m25.6 76.8a25.6 25.6 0 0 1-25.6 25.6H166.4a25.6 25.6 0 0 1-25.6-25.6v-38.4a25.6 25.6 0 0 1 25.6-25.6h691.2a25.6 25.6 0 0 1 25.6 25.6z" opacity=".14" /><path d="M716.8 600H505.6c20.352 26.496 54.72 64 96 64s87.36-37.504 115.2-64z" opacity=".14" /><path d="M166.4 664m6.4 0l25.6 0q6.4 0 6.4 6.4l0 0q0 6.4-6.4 6.4l-25.6 0q-6.4 0-6.4-6.4l0 0q0-6.4 6.4-6.4Z" fill="#453F3C" /><path d="M217.6 612.8m6.4 0l25.6 0q6.4 0 6.4 6.4l0 0q0 6.4-6.4 6.4l-25.6 0q-6.4 0-6.4-6.4l0 0q0-6.4 6.4-6.4Z" fill="#453F3C" /><path d="M441.6 644.8m6.4 0l25.6 0q6.4 0 6.4 6.4l0 0q0 6.4-6.4 6.4l-25.6 0q-6.4 0-6.4-6.4l0 0q0-6.4 6.4-6.4Z" fill="#453F3C" /><path d="M332.8 632m6.4 0l25.6 0q6.4 0 6.4 6.4l0 0q0 6.4-6.4 6.4l-25.6 0q-6.4 0-6.4-6.4l0 0q0-6.4 6.4-6.4Z" fill="#453F3C" /><path d="M281.6 670.4m6.4 0l25.6 0q6.4 0 6.4 6.4l0 0q0 6.4-6.4 6.4l-25.6 0q-6.4 0-6.4-6.4l0 0q0-6.4 6.4-6.4Z" fill="#453F3C" /><path d="M588.8 676.8m6.4 0l25.6 0q6.4 0 6.4 6.4l0 0q0 6.4-6.4 6.4l-25.6 0q-6.4 0-6.4-6.4l0 0q0-6.4 6.4-6.4Z" fill="#453F3C" /><path d="M729.6 606.4m6.4 0l25.6 0q6.4 0 6.4 6.4l0 0q0 6.4-6.4 6.4l-25.6 0q-6.4 0-6.4-6.4l0 0q0-6.4 6.4-6.4Z" fill="#453F3C" /><path d="M761.6 664m6.4 0l25.6 0q6.4 0 6.4 6.4l0 0q0 6.4-6.4 6.4l-25.6 0q-6.4 0-6.4-6.4l0 0q0-6.4 6.4-6.4Z" fill="#453F3C" /><path d="M838.4 625.6m6.4 0l25.6 0q6.4 0 6.4 6.4l0 0q0 6.4-6.4 6.4l-25.6 0q-6.4 0-6.4-6.4l0 0q0-6.4 6.4-6.4Z" fill="#453F3C" /><path d="M480 600m6.4 0l25.6 0q6.4 0 6.4 6.4l0 0q0 6.4-6.4 6.4l-25.6 0q-6.4 0-6.4-6.4l0 0q0-6.4 6.4-6.4Z" fill="#453F3C" /><path d="M396.8 600h12.8v89.6h-12.8zM422.4 600h6.4v89.6h-6.4z" fill="#FFFFFF" opacity=".24" /><path d="M601.6 651.2c-51.2 0-102.4-82.496-102.4-82.496v-45.504h230.4v44.8s-76.8 83.2-128 83.2z" fill="#453F3C" /><path d="M166.4 587.2a38.4 38.4 0 0 1 0-76.8h691.2a38.4 38.4 0 0 1 0 76.8z" fill="#453F3C" /><path d="M153.6 536m12.8 0l691.2 0q12.8 0 12.8 12.8l0 0q0 12.8-12.8 12.8l-691.2 0q-12.8 0-12.8-12.8l0 0q0-12.8 12.8-12.8Z" fill="#EAC363" /><path d="M524.8 561.6s38.4 64 76.8 64 102.4-64 102.4-64v-12.8H524.8z" fill="#EAC363" /><path d="M576 548.8h12.8v64h-12.8zM601.6 548.8h6.4v64h-6.4z" fill="#FFFFFF" opacity=".24" /><path d="M524.8 561.6h12.8c13.632 18.56 38.4 51.2 64 51.2s65.088-29.888 89.6-51.2h12.8v76.8H524.8z" fill="#FFFFFF" opacity=".24" /><path d="M147.2 523.2h729.6v25.6H147.2z" opacity=".14" /><path d="M204.8 536a140.8 57.6 0 1 0 281.6 0 140.8 57.6 0 1 0-281.6 0Z" fill="#453F3C" /><path d="M230.4 536a115.2 32 0 1 0 230.4 0 115.2 32 0 1 0-230.4 0Z" fill="#ED7161" /><path d="M345.6 555.2c-56.576 0-102.4-8.576-102.4-19.2h-12.8c0 17.664 51.584 32 115.2 32s115.2-14.336 115.2-32h-12.8c0 10.624-45.824 19.2-102.4 19.2z" fill="#FFFFFF" opacity=".24" /><path d="M224 523.2h243.2v25.6H224z" opacity=".14" /><path d="M896 472v12.8a51.2 51.2 0 0 1-51.2 51.2H179.2a51.2 51.2 0 0 1-51.2-51.2v-12.8a243.2 243.2 0 0 1 243.2-243.2h281.6a243.2 243.2 0 0 1 243.2 243.2z" fill="#453F3C" /><path d="M371.2 254.4h281.6a217.6 217.6 0 0 1 217.6 217.6v12.8a25.6 25.6 0 0 1-25.6 25.6H179.2a25.6 25.6 0 0 1-25.6-25.6v-12.8a217.6 217.6 0 0 1 217.6-217.6z" fill="#EACE8F" /><path d="M128 484.8h768v51.2H128z" opacity=".14" /><path d="M883.2 484.8h-25.6v-12.8a204.8 204.8 0 0 0-204.8-204.8H371.2a204.8 204.8 0 0 0-204.8 204.8v12.8h-25.6v-12.8a230.4 230.4 0 0 1 230.4-230.4h281.6a229.824 229.824 0 0 1 230.4 230.4z" fill="#FFFFFF" opacity=".24" /><path d="M409.6 452.8m-12.8 0a12.8 12.8 0 1 0 25.6 0 12.8 12.8 0 1 0-25.6 0Z" fill="#FFE09B" /><path d="M512 395.2m-12.8 0a12.8 12.8 0 1 0 25.6 0 12.8 12.8 0 1 0-25.6 0Z" fill="#FFE09B" /><path d="M403.2 299.2m-12.8 0a12.8 12.8 0 1 0 25.6 0 12.8 12.8 0 1 0-25.6 0Z" fill="#FFE09B" /><path d="M787.2 414.4m-12.8 0a12.8 12.8 0 1 0 25.6 0 12.8 12.8 0 1 0-25.6 0Z" fill="#FFE09B" /><path d="M672 312m-12.8 0a12.8 12.8 0 1 0 25.6 0 12.8 12.8 0 1 0-25.6 0Z" fill="#FFE09B" /><path d="M620.8 459.2m-12.8 0a12.8 12.8 0 1 0 25.6 0 12.8 12.8 0 1 0-25.6 0Z" fill="#FFE09B" /><path d="M249.6 337.6m-12.8 0a12.8 12.8 0 1 0 25.6 0 12.8 12.8 0 1 0-25.6 0Z" fill="#FFE09B" /><path d="M217.6 446.4m-12.8 0a12.8 12.8 0 1 0 25.6 0 12.8 12.8 0 1 0-25.6 0Z" fill="#FFE09B" /><path d="M563.2 286.4m-12.8 0a12.8 12.8 0 1 0 25.6 0 12.8 12.8 0 1 0-25.6 0Z" fill="#FFE09B" /><path d="M448 267.2h12.8v217.6h-12.8zM473.6 267.2h6.4v217.6h-6.4z" fill="#FFFFFF" opacity=".24" /><path d="M166.4 779.2a38.4 38.4 0 0 1 0-76.8h691.2a38.4 38.4 0 0 1 0 76.8z" fill="#453F3C" /><path d="M153.6 728m12.8 0l691.2 0q12.8 0 12.8 12.8l0 0q0 12.8-12.8 12.8l-691.2 0q-12.8 0-12.8-12.8l0 0q0-12.8 12.8-12.8Z" fill="#5E7D65" /><path d="M147.2 715.2h729.6v25.6H147.2z" fill="#FFFFFF" opacity=".24" /></svg>