<svg class="svg-icon" style="width: 1em; height: 1em;vertical-align: middle;fill: currentColor;overflow: hidden;" viewBox="0 0 1024 1024" version="1.1" xmlns="http://www.w3.org/2000/svg"><path d="M511.199775 200.744024c0.169869 0 0.337691 0.011256 0.506537 0.013303 0.169869-0.002047 0.336668-0.013303 0.506537-0.013303L511.199775 200.744024z"  /><path d="M512.212848 557.877887c-0.169869 0-0.337691-0.011256-0.506537-0.013303-0.169869 0.002047-0.336668 0.013303-0.506537 0.013303L512.212848 557.877887z"  /><path d="M881.777835 511.51086c0 0.106424-0.007163 0.211824-0.008186 0.318248 0.001023 0.106424 0.008186 0.211824 0.008186 0.318248L881.777835 511.51086z"  /><path d="M855.717296 486.08784 552.647769 486.08784 552.647769 242.192018c0-22.626323-18.376533-41.159422-40.941458-41.434691-22.563902 0.275269-40.941458 18.808368-40.941458 41.434691l0 274.237875c0 22.626323 18.376533 41.159422 40.941458 41.434691 14.876826-0.181125 27.928073-8.296967 35.097356-20.294209l308.913629 0c14.226003 0 25.87839-11.55415 26.051329-25.741267C881.596709 497.641991 869.943298 486.08784 855.717296 486.08784z"  /><path d="M511.706311 63.525825c-247.512187 0-448.16002 200.647833-448.16002 448.16002 0 57.141418 10.701736 111.780853 30.197766 162.034397l53.956889-21.051455c-17.165961-44.36544-26.140357-91.983971-26.140357-140.982942 0-104.211457 40.582277-202.185862 114.270557-275.874141 73.689303-73.689303 171.662685-114.270557 275.875165-114.270557 104.211457 0 202.184839 40.582277 275.874141 114.270557 73.689303 73.688279 114.27158 171.662685 114.27158 275.874141 0 104.211457-40.582277 202.185862-114.27158 275.875165S615.917768 901.831566 511.707334 901.831566c-65.813938 0-129.138172-16.192797-185.430246-46.682205L298.860668 906.168338c63.319118 34.235732 135.811152 53.676503 212.845643 53.676503 247.512187 0 448.16002-200.647833 448.16002-448.16002S759.218498 63.525825 511.706311 63.525825z"  /></svg>