<svg class="svg-icon" style="width: 1em; height: 1em;vertical-align: middle;fill: currentColor;overflow: hidden;" viewBox="0 0 1024 1024" version="1.1" xmlns="http://www.w3.org/2000/svg"><path d="M952.479688 452.456296L851.147602 807.852164C847.893957 819.279844 834.969201 828.382066 822.234074 828.382066H214.910253c-12.745107 0-25.659883-9.102222-28.923508-20.529902L85.722573 456.159064a87.820476 87.820476 0 1 1 106.022924-57.50768l135.295751 82.588694 132.890448-234.062846a87.82846 87.82846 0 1 1 119.356881-0.239532l39.293255 67.647875 92.090137 167.133567 135.635088-82.778323a87.82846 87.82846 0 1 1 106.172631 53.515477zM108.288499 344.327485a26.947368 26.947368 0 1 0 26.947368 26.947369 26.947368 26.947368 0 0 0-26.947368-26.947369z m411.196881-188.631579a26.947368 26.947368 0 1 0 26.947369 26.947369 26.947368 26.947368 0 0 0-26.947369-26.947369z m313.018636 329.63618C810.786433 498.386589 685.600936 573.879142 685.600936 573.879142l-82.788304-157.073216L522.389708 270.471735 355.146355 564.896686s-132.451306-72.248889-150.595868-82.448967-37.376998-9.940585-25.979259 32.057388l74.23501 229.561638c2.634854 9.152125 13.094425 16.447875 23.404288 16.447875h491.370293c10.299883 0 20.759454-7.29575 23.394308-16.447875l66.380351-226.677271c12.565458-43.734581-3.133879-45.10191-24.851462-32.057388z m95.992514-144.308148a26.947368 26.947368 0 1 0 26.947369 26.947368 26.947368 26.947368 0 0 0-26.947369-26.947368zM268.974659 888.265107h307.39961a31.937622 31.937622 0 0 1 0 63.875244H268.974659a31.937622 31.937622 0 0 1 0-63.875244z m418.183236 0h70.861598a31.937622 31.937622 0 0 1 0 63.875244h-70.861598a31.937622 31.937622 0 0 1 0-63.875244z" fill="#E61D15" /></svg>