<svg width="700" height="337" viewBox="0 0 700 337" fill="none" xmlns="http://www.w3.org/2000/svg">
<path d="M55.8521 176.499C25.0901 227.641 9.35066 277.999 16.852 308.499C23.852 320.999 55.3955 321.666 64.852 321.499L355.854 315.999H537.353H630.853H672.352C697.357 315.999 678.039 246.5 659.039 207C640.039 167.5 603.174 118.105 568.187 90.9994C479.687 22.4363 426.651 15 366.352 15C319.352 15 281.352 18.0004 217.852 43.0007C143.864 72.1304 95.8522 110 55.8521 176.499Z" stroke="black" stroke-width="30"/>
<path d="M165.607 209.791C154.781 211.202 147.107 217.791 144.607 222.791C137.607 238.791 144.607 252.791 158.107 259.291C171.607 265.791 191.941 255.916 197.607 245.291C201.607 237.791 199.107 223.791 187.107 214.291C183.579 211.497 175.107 208.553 165.607 209.791Z" stroke="black" stroke-width="20"/>
<path d="M252.607 108.791C241.781 110.202 234.107 116.791 231.607 121.791C224.607 137.791 231.607 151.791 245.107 158.291C258.607 164.791 278.941 154.916 284.607 144.291C288.607 136.791 286.107 122.791 274.107 113.291C270.579 110.497 262.107 107.553 252.607 108.791Z" stroke="black" stroke-width="20"/>
<path d="M344.607 209.791C333.781 211.202 326.107 217.791 323.607 222.791C316.607 238.791 323.607 252.791 337.107 259.291C350.607 265.791 370.941 255.916 376.607 245.291C380.607 237.791 378.107 223.791 366.107 214.291C362.579 211.497 354.107 208.553 344.607 209.791Z" stroke="black" stroke-width="20"/>
<path d="M465.607 108.791C454.781 110.202 447.107 116.791 444.607 121.791C437.607 137.791 444.607 151.791 458.107 158.291C471.607 164.791 491.941 154.916 497.607 144.291C501.607 136.791 499.107 122.791 487.107 113.291C483.579 110.497 475.107 107.553 465.607 108.791Z" stroke="black" stroke-width="20"/>
<path d="M521.607 209.791C510.781 211.202 503.107 217.791 500.607 222.791C493.607 238.791 500.607 252.791 514.107 259.291C527.607 265.791 547.941 255.916 553.607 245.291C557.607 237.791 555.107 223.791 543.107 214.291C539.579 211.497 531.107 208.553 521.607 209.791Z" stroke="black" stroke-width="20"/>
</svg>
