<svg width="698" height="337" viewBox="0 0 698 337" fill="none" xmlns="http://www.w3.org/2000/svg">
<path d="M55.8521 176.755C25.0901 227.896 9.35066 278.255 16.852 308.755C23.852 321.255 55.3955 321.921 64.852 321.755L355.854 316.255H537.353H630.853H672.352C697.357 316.255 672.852 235.256 653.852 195.756C634.852 156.256 612.352 115.088 578.352 86.7549C524.352 41.7549 480.852 22.7551 420.852 16.7546C365.949 11.2638 281.352 18.2558 217.852 43.2561C143.864 72.3858 95.8522 110.255 55.8521 176.755Z" stroke="black" stroke-width="30"/>
<path d="M165.607 210.046C154.781 211.457 147.107 218.046 144.607 223.046C137.607 239.046 144.607 253.046 158.107 259.546C171.607 266.046 191.941 256.171 197.607 245.546C201.607 238.046 199.107 224.046 187.107 214.546C183.579 211.752 175.107 208.807 165.607 210.046Z" stroke="black" stroke-width="20"/>
<path d="M252.607 109.046C241.781 110.457 234.107 117.046 231.607 122.046C224.607 138.046 231.607 152.046 245.107 158.546C258.607 165.046 278.941 155.171 284.607 144.546C288.607 137.046 286.107 123.046 274.107 113.546C270.579 110.752 262.107 107.807 252.607 109.046Z" stroke="black" stroke-width="20"/>
<path d="M344.607 210.046C333.781 211.457 326.107 218.046 323.607 223.046C316.607 239.046 323.607 253.046 337.107 259.546C350.607 266.046 370.941 256.171 376.607 245.546C380.607 238.046 378.107 224.046 366.107 214.546C362.579 211.752 354.107 208.807 344.607 210.046Z" stroke="black" stroke-width="20"/>
<path d="M465.607 109.046C454.781 110.457 447.107 117.046 444.607 122.046C437.607 138.046 444.607 152.046 458.107 158.546C471.607 165.046 491.941 155.171 497.607 144.546C501.607 137.046 499.107 123.046 487.107 113.546C483.579 110.752 475.107 107.807 465.607 109.046Z" stroke="black" stroke-width="20"/>
<path d="M521.607 210.046C510.781 211.457 503.107 218.046 500.607 223.046C493.607 239.046 500.607 253.046 514.107 259.546C527.607 266.046 547.941 256.171 553.607 245.546C557.607 238.046 555.107 224.046 543.107 214.546C539.579 211.752 531.107 208.807 521.607 210.046Z" stroke="black" stroke-width="20"/>
</svg>
