<svg width="708" height="347" viewBox="0 0 708 347" fill="none" xmlns="http://www.w3.org/2000/svg">
<path d="M60.8511 181.754C30.0891 232.895 14.3497 283.254 21.851 313.754C28.851 326.254 60.3946 326.92 69.851 326.754L360.853 321.254H542.352H635.852H677.351C702.356 321.254 677.851 240.255 658.851 200.755C639.851 161.255 617.351 120.087 583.351 91.7539C529.351 46.7539 485.851 27.7541 425.851 21.7536C370.948 16.2628 286.352 23.2549 222.851 48.2552C148.863 77.3849 100.851 115.254 60.8511 181.754Z" stroke="black" stroke-width="40"/>
<path d="M170.606 215.045C159.78 216.456 152.106 223.045 149.606 228.045C142.606 244.045 149.606 258.045 163.106 264.545C176.606 271.045 196.94 261.17 202.606 250.545C206.606 243.045 204.106 229.045 192.106 219.545C188.578 216.751 180.106 213.806 170.606 215.045Z" stroke="black" stroke-width="20"/>
<path d="M257.606 114.045C246.78 115.456 239.106 122.045 236.606 127.045C229.606 143.045 236.606 157.045 250.106 163.545C263.606 170.045 283.94 160.17 289.606 149.545C293.606 142.045 291.106 128.045 279.106 118.545C275.578 115.751 267.106 112.806 257.606 114.045Z" stroke="black" stroke-width="20"/>
<path d="M349.606 215.045C338.78 216.456 331.106 223.045 328.606 228.045C321.606 244.045 328.606 258.045 342.106 264.545C355.606 271.045 375.94 261.17 381.606 250.545C385.606 243.045 383.106 229.045 371.106 219.545C367.578 216.751 359.106 213.806 349.606 215.045Z" stroke="black" stroke-width="20"/>
<path d="M470.606 114.045C459.78 115.456 452.106 122.045 449.606 127.045C442.606 143.045 449.606 157.045 463.106 163.545C476.606 170.045 496.94 160.17 502.606 149.545C506.606 142.045 504.106 128.045 492.106 118.545C488.578 115.751 480.106 112.806 470.606 114.045Z" stroke="black" stroke-width="20"/>
<path d="M526.606 215.045C515.78 216.456 508.106 223.045 505.606 228.045C498.606 244.045 505.606 258.045 519.106 264.545C532.606 271.045 552.94 261.17 558.606 250.545C562.606 243.045 560.106 229.045 548.106 219.545C544.578 216.751 536.106 213.806 526.606 215.045Z" stroke="black" stroke-width="20"/>
</svg>
