<svg width="732" height="200" viewBox="0 0 732 200" fill="none" xmlns="http://www.w3.org/2000/svg">
<path d="M49.5609 127.038C33.1834 106.972 20.1646 71.5062 15.2221 38.9883C13.5212 27.7981 22.5827 18.347 33.9014 18.2908L697.176 15.0003C708.796 14.9426 718.059 24.7773 716.579 36.3032C714.555 52.0656 711.506 67.6975 707.692 79.3936C700.192 102.394 705.192 94.3936 682.192 139.894C663.655 176.566 611.192 182.227 590.192 182.894C453.692 183.894 171.092 185.294 132.692 182.894C95.3175 180.558 63.2791 148.665 51.6065 129.907C50.9822 128.903 50.3082 127.954 49.5609 127.038Z" stroke="black" stroke-width="30"/>
</svg>
